<svg width="34" height="34" viewBox="0 0 34 34" fill="none" xmlns="http://www.w3.org/2000/svg">
<rect width="34" height="34" rx="17" fill="#3456F3"/>
<path fill-rule="evenodd" clip-rule="evenodd" d="M18.7927 18.2639C17.3608 19.6958 15.0391 19.6958 13.6072 18.2639C12.1753 16.832 12.1753 14.5104 13.6072 13.0784C15.0391 11.6465 17.3608 11.6465 18.7927 13.0784C20.2246 14.5104 20.2246 16.832 18.7927 18.2639ZM19.2331 19.6469C17.2728 21.1462 14.4572 20.9995 12.6644 19.2067C10.7118 17.2541 10.7118 14.0883 12.6644 12.1356C14.617 10.183 17.7829 10.183 19.7355 12.1356C21.5282 13.9284 21.675 16.7438 20.1758 18.704L23.7425 22.2707L22.7997 23.2135L19.2331 19.6469Z" fill="white"/>
</svg>
